<svg version="1.2" xmlns="http://www.w3.org/2000/svg" viewBox="0 0 720 720" width="720" height="720">
	<title>LOGO_PGI</title>
	<style>
		.s0 { fill: none;stroke: #4ba247;stroke-linecap: round;stroke-miterlimit:100;stroke-width: 10 } 
		.s1 { fill: none;stroke: #6fe069;stroke-miterlimit:100;stroke-width: 10 } 
		.s2 { fill: none;stroke: #f54e4e;stroke-linecap: round;stroke-miterlimit:100;stroke-width: 20 } 
	</style>
	<g id="Pasta 1">
		<path id="Camada 10" class="s0" d="m502 158.2l157.5 253.3m-148.8-285.8l-18.8 105.2-75.7 74.1m53.2-40.3l71.4 109-79.2 20.7m-31.5 159.2c72.4-26.5 125.1-106.8 82.5-165m-110.8 120.4l41.3 86.4 68.5 40.1m-177.5-122.8l7.5 169.1m11.3-56.3m150.9-313c19.9-10.1 68-39.3 68-39.3m-46.2 142.3l128.4-10.1m-222.2 190m-157.8-97.7l-112.7 127.8m73.8-94.1c0 0-49.4-24-47.5-67.5 0.9-7.9-105.3 48.8-105.3 48.8m15.1-300.6l143.7 118.9m-192.6 20.1c0 0 106.2 30.9 116.5 30.1 10.3-0.8-52.5 33-10.7 48.7 54.9 1.7 89.9-25.1 89.9-25.1 0 0-32.4-70.5-62.7-67.6-25.5 9.1-17.4 47.4-17.4 47.4m-65.6-19.6l57.1-100.5m110.9-22.3l-43.9 13.2-45.7-74.3-68.3 27.2m268.6-58.7l130.8 17.2m-169 449.8c48.2 4.4 100.8-25.5 100.8-25.5"/>
		<path id="Forma 1" class="s1" d="m351 689.4c-171.4 0-310-138.6-310-310.1 0-171.4 138.6-310 310-310 171.5 0 310.1 138.6 310.1 310 0 171.5-138.6 310.1-310.1 310.1z"/>
		<path id="Camada 9" class="s2" d="m424.3 343.6c0 0-172.7-29.7-169.1 63.9 3.6 93.6 152.2 74.1 157.8 48.9"/>
		<path id="Camada 9" class="s2" d="m225.1 110.6c39.7 6.7 69.2 203.7 69.2 203.7 0 0 61.6-248.7 181.7-283.3"/>
	</g>
</svg>